<?xml version="1.0" encoding="UTF-8" standalone="no"?>
<svg
   version="1.1"
   width="6.0707293cm"
   height="3.0344927cm"
   viewBox="0 0 23900.509 11946.822"
   id="svg454"
   sodipodi:docname="Schématique.svg"
   inkscape:version="1.2.2 (b0a8486541, 2022-12-01)"
   xmlns:inkscape="http://www.inkscape.org/namespaces/inkscape"
   xmlns:sodipodi="http://sodipodi.sourceforge.net/DTD/sodipodi-0.dtd"
   xmlns="http://www.w3.org/2000/svg"
   xmlns:svg="http://www.w3.org/2000/svg"
   xmlns:rdf="http://www.w3.org/1999/02/22-rdf-syntax-ns#"
   xmlns:cc="http://creativecommons.org/ns#"
   xmlns:dc="http://purl.org/dc/elements/1.1/">
  <defs
     id="defs458">
    <clipPath
       clipPathUnits="userSpaceOnUse"
       id="clipPath902">
      <rect
         style="fill:#000000;stroke-width:101.998"
         id="rect904"
         width="23900.51"
         height="11946.822"
         x="23539.643"
         y="26208.256" />
    </clipPath>
  </defs>
  <sodipodi:namedview
     id="namedview456"
     pagecolor="#ffffff"
     bordercolor="#000000"
     borderopacity="0.25"
     inkscape:showpageshadow="2"
     inkscape:pageopacity="0.0"
     inkscape:pagecheckerboard="0"
     inkscape:deskcolor="#d1d1d1"
     inkscape:document-units="cm"
     showgrid="false"
     inkscape:zoom="1.4816159"
     inkscape:cx="340.16913"
     inkscape:cy="34.759345"
     inkscape:window-width="2048"
     inkscape:window-height="1083"
     inkscape:window-x="0"
     inkscape:window-y="0"
     inkscape:window-maximized="1"
     inkscape:current-layer="svg454" />
  <title
     id="title2">SVG Picture created as Schématique.svg date 2023/01/12 11:34:22 </title>
  <desc
     id="desc4">Picture generated by Eeschema-SVG </desc>
  <g
     id="g894"
     clip-path="url(#clipPath902)"
     transform="translate(-23539.643,-26208.256)">
    <g
       style="fill:#000000;fill-opacity:1;stroke:#000000;stroke-linecap:round;stroke-linejoin:round;stroke-opacity:1"
       id="g6" />
    <g
       style="fill:#1d2021;fill-opacity:0;stroke:#1d2021;stroke-width:0;stroke-linecap:round;stroke-linejoin:round;stroke-opacity:1"
       id="g8" />
    <g
       style="fill:#1d2021;fill-opacity:1;stroke:#1d2021;stroke-width:0.03937;stroke-linecap:round;stroke-linejoin:round;stroke-opacity:1"
       id="g12">
      <rect
         x="0"
         y="0"
         width="116930"
         height="82680"
         rx="0.000000"
         id="rect10" />
    </g>
    <g
       style="fill:#1d2021;fill-opacity:1;stroke:#1d2021;stroke-width:60;stroke-linecap:round;stroke-linejoin:round;stroke-opacity:1"
       id="g36">
      <g
         id="g14" />
      <g
         style="fill:#83a598;fill-opacity:1;stroke:#83a598;stroke-width:60;stroke-linecap:round;stroke-linejoin:round;stroke-opacity:1"
         id="g16" />
      <g
         style="fill:#83a598;fill-opacity:0;stroke:#83a598;stroke-width:60;stroke-linecap:round;stroke-linejoin:round;stroke-opacity:1"
         id="g20">
        <path
           style="fill:none;fill-opacity:0;stroke:#83a598;stroke-width:60;stroke-linecap:round;stroke-linejoin:round;stroke-opacity:1"
           d="m 25000,35000 v 500 h 500 l -500,500 -500,-500 h 500"
           id="path18" />
      </g>
      <g
         style="fill:#fbf1c7;fill-opacity:0;stroke:#fbf1c7;stroke-width:60;stroke-linecap:round;stroke-linejoin:round;stroke-opacity:1"
         id="g34">
        <text
           x="25000"
           y="37249.961"
           textLength="1583.8188"
           font-size="666.654px"
           lengthAdjust="spacingAndGlyphs"
           text-anchor="middle"
           opacity="0"
           id="text22">GND</text>
        <g
           class="stroked-text"
           id="g32">
          <desc
             id="desc24">GND</desc>
          <path
             d="m 24619,36749 -48,-23 h -71 l -72,23 -48,48 -23,48 -24,95 v 71 l 24,96 23,47 48,48 72,24 h 47 l 72,-24 23,-24 v -167 h -95"
             id="path26" />
          <path
             d="m 24857,37226 v -500 l 285,500 v -500"
             id="path28" />
          <path
             d="m 25380,37226 v -500 h 120 l 71,23 48,48 23,48 24,95 v 71 l -24,96 -23,47 -48,48 -71,24 h -120"
             id="path30" />
        </g>
      </g>
    </g>
    <g
       style="fill:#fbf1c7;fill-opacity:0;stroke:#fbf1c7;stroke-width:60;stroke-linecap:round;stroke-linejoin:round;stroke-opacity:1"
       id="g116">
      <g
         id="g38" />
      <g
         style="fill:#83a598;fill-opacity:0;stroke:#83a598;stroke-width:60;stroke-linecap:round;stroke-linejoin:round;stroke-opacity:1"
         id="g42">
        <path
           style="fill:none;fill-opacity:0;stroke:#83a598;stroke-width:60;stroke-linecap:round;stroke-linejoin:round;stroke-opacity:1"
           d="m 34000,31750 h 2000"
           id="path40" />
      </g>
      <g
         style="fill:#83a598;fill-opacity:1;stroke:#83a598;stroke-width:60;stroke-linecap:round;stroke-linejoin:round;stroke-opacity:1"
         id="g46">
        <path
           style="fill:#83a598;fill-opacity:1;fill-rule:evenodd;stroke:#83a598;stroke-width:60;stroke-linecap:round;stroke-linejoin:round;stroke-opacity:1"
           d="m 34000,33250 h 2000 l -1000,-1500"
           id="path44" />
      </g>
      <g
         style="fill:#689d6a;fill-opacity:1;stroke:#689d6a;stroke-width:60;stroke-linecap:round;stroke-linejoin:round;stroke-opacity:1"
         id="g48" />
      <g
         style="fill:#689d6a;fill-opacity:0;stroke:#689d6a;stroke-width:60;stroke-linecap:round;stroke-linejoin:round;stroke-opacity:1"
         id="g52">
        <path
           d="m 35000,33000 v 1500"
           id="path50" />
      </g>
      <g
         style="fill:#fabd2f;fill-opacity:0;stroke:#fabd2f;stroke-width:60;stroke-linecap:round;stroke-linejoin:round;stroke-opacity:1"
         id="g66">
        <g
           transform="rotate(-90,34900,33750)"
           id="g56">
          <text
             x="34900"
             y="33750"
             textLength="536.18109"
             font-size="666.654px"
             lengthAdjust="spacingAndGlyphs"
             text-anchor="middle"
             opacity="0"
             id="text54">1</text>
        </g>
        <g
           class="stroked-text"
           id="g64">
          <desc
             id="desc58">1</desc>
          <path
             d="m 34876,33607 v 285"
             id="path60" />
          <path
             d="m 34876,33750 h -500 l 71,47 48,48 24,47"
             id="path62" />
        </g>
      </g>
      <g
         style="fill:#689d6a;fill-opacity:0;stroke:#689d6a;stroke-width:60;stroke-linecap:round;stroke-linejoin:round;stroke-opacity:1"
         id="g70">
        <path
           d="M 35000,32000 V 30500"
           id="path68" />
      </g>
      <g
         style="fill:#fabd2f;fill-opacity:0;stroke:#fabd2f;stroke-width:60;stroke-linecap:round;stroke-linejoin:round;stroke-opacity:1"
         id="g82">
        <g
           transform="rotate(-90,34900,31250)"
           id="g74">
          <text
             x="34900"
             y="31250"
             textLength="536.18109"
             font-size="666.654px"
             lengthAdjust="spacingAndGlyphs"
             text-anchor="middle"
             opacity="0"
             id="text72">2</text>
        </g>
        <g
           class="stroked-text"
           id="g80">
          <desc
             id="desc76">2</desc>
          <path
             d="m 34423,31392 -23,-23 -24,-48 v -119 l 24,-48 23,-24 48,-23 h 48 l 71,23 286,286 v -309"
             id="path78" />
        </g>
      </g>
      <g
         style="fill:#fbf1c7;fill-opacity:0;stroke:#fbf1c7;stroke-width:60;stroke-linecap:round;stroke-linejoin:round;stroke-opacity:1"
         id="g114">
        <text
           x="37019.332"
           y="32249.961"
           textLength="1036.1812"
           font-size="666.654px"
           lengthAdjust="spacingAndGlyphs"
           text-anchor="middle"
           opacity="0"
           id="text84">D1</text>
        <g
           class="stroked-text"
           id="g94">
          <desc
             id="desc86">D1</desc>
          <path
             d="m 36650,32226 v -500 h 119 l 71,23 48,48 24,48 23,95 v 71 l -23,96 -24,47 -48,48 -71,24 h -119"
             id="path88" />
          <path
             d="m 37412,32226 h -286"
             id="path90" />
          <path
             d="m 37269,32226 v -500 l -48,71 -47,48 -48,23"
             id="path92" />
        </g>
        <text
           x="37638.387"
           y="33249.961"
           textLength="2274.2913"
           font-size="666.654px"
           lengthAdjust="spacingAndGlyphs"
           text-anchor="middle"
           opacity="0"
           id="text96">DIODE</text>
        <g
           class="stroked-text"
           id="g112">
          <desc
             id="desc98">DIODE</desc>
          <path
             d="m 36650,33226 v -500 h 119 l 71,23 48,48 24,48 23,95 v 71 l -23,96 -24,47 -48,48 -71,24 h -119"
             id="path100" />
          <path
             d="m 37150,33226 v -500"
             id="path102" />
          <path
             d="m 37483,32726 h 95 l 48,23 48,48 23,95 v 167 l -23,95 -48,48 -48,24 h -95 l -48,-24 -47,-48 -24,-95 v -167 l 24,-95 47,-48 48,-23"
             id="path104" />
          <path
             d="m 37912,33226 v -500 h 119 l 71,23 48,48 24,48 23,95 v 71 l -23,96 -24,47 -48,48 -71,24 h -119"
             id="path106" />
          <path
             d="m 38412,32964 h 166"
             id="path108" />
          <path
             d="m 38650,33226 h -238 v -500 h 238"
             id="path110" />
        </g>
      </g>
    </g>
    <g
       style="fill:#fbf1c7;fill-opacity:0;stroke:#fbf1c7;stroke-width:60;stroke-linecap:round;stroke-linejoin:round;stroke-opacity:1"
       id="g194">
      <g
         id="g118" />
      <g
         style="fill:#83a598;fill-opacity:0;stroke:#83a598;stroke-width:60;stroke-linecap:round;stroke-linejoin:round;stroke-opacity:1"
         id="g122">
        <path
           style="fill:none;fill-opacity:0;stroke:#83a598;stroke-width:60;stroke-linecap:round;stroke-linejoin:round;stroke-opacity:1"
           d="m 39000,33250 h 2000"
           id="path120" />
      </g>
      <g
         style="fill:#83a598;fill-opacity:1;stroke:#83a598;stroke-width:60;stroke-linecap:round;stroke-linejoin:round;stroke-opacity:1"
         id="g126">
        <path
           style="fill:#83a598;fill-opacity:1;fill-rule:evenodd;stroke:#83a598;stroke-width:60;stroke-linecap:round;stroke-linejoin:round;stroke-opacity:1"
           d="m 39000,31750 h 2000 l -1000,1500"
           id="path124" />
      </g>
      <g
         style="fill:#689d6a;fill-opacity:1;stroke:#689d6a;stroke-width:60;stroke-linecap:round;stroke-linejoin:round;stroke-opacity:1"
         id="g128" />
      <g
         style="fill:#689d6a;fill-opacity:0;stroke:#689d6a;stroke-width:60;stroke-linecap:round;stroke-linejoin:round;stroke-opacity:1"
         id="g132">
        <path
           d="M 40000,32000 V 30500"
           id="path130" />
      </g>
      <g
         style="fill:#fabd2f;fill-opacity:0;stroke:#fabd2f;stroke-width:60;stroke-linecap:round;stroke-linejoin:round;stroke-opacity:1"
         id="g146">
        <g
           transform="rotate(-90,39900,31250)"
           id="g136">
          <text
             x="39900"
             y="31250"
             textLength="536.18109"
             font-size="666.654px"
             lengthAdjust="spacingAndGlyphs"
             text-anchor="middle"
             opacity="0"
             id="text134">1</text>
        </g>
        <g
           class="stroked-text"
           id="g144">
          <desc
             id="desc138">1</desc>
          <path
             d="m 39876,31107 v 285"
             id="path140" />
          <path
             d="m 39876,31250 h -500 l 71,47 48,48 24,47"
             id="path142" />
        </g>
      </g>
      <g
         style="fill:#689d6a;fill-opacity:0;stroke:#689d6a;stroke-width:60;stroke-linecap:round;stroke-linejoin:round;stroke-opacity:1"
         id="g150">
        <path
           d="m 40000,33000 v 1500"
           id="path148" />
      </g>
      <g
         style="fill:#fabd2f;fill-opacity:0;stroke:#fabd2f;stroke-width:60;stroke-linecap:round;stroke-linejoin:round;stroke-opacity:1"
         id="g162">
        <g
           transform="rotate(-90,39900,33750)"
           id="g154">
          <text
             x="39900"
             y="33750"
             textLength="536.18109"
             font-size="666.654px"
             lengthAdjust="spacingAndGlyphs"
             text-anchor="middle"
             opacity="0"
             id="text152">2</text>
        </g>
        <g
           class="stroked-text"
           id="g160">
          <desc
             id="desc156">2</desc>
          <path
             d="m 39423,33892 -23,-23 -24,-48 v -119 l 24,-48 23,-24 48,-23 h 48 l 71,23 286,286 v -309"
             id="path158" />
        </g>
      </g>
      <g
         style="fill:#fbf1c7;fill-opacity:0;stroke:#fbf1c7;stroke-width:60;stroke-linecap:round;stroke-linejoin:round;stroke-opacity:1"
         id="g192">
        <text
           x="42019.332"
           y="32249.922"
           textLength="1036.1812"
           font-size="666.654px"
           lengthAdjust="spacingAndGlyphs"
           text-anchor="middle"
           opacity="0"
           id="text164">D2</text>
        <g
           class="stroked-text"
           id="g172">
          <desc
             id="desc166">D2</desc>
          <path
             d="m 41650,32226 v -500 h 119 l 71,23 48,48 24,48 23,95 v 71 l -23,96 -24,47 -48,48 -71,24 h -119"
             id="path168" />
          <path
             d="m 42126,31773 24,-24 47,-23 h 119 l 48,23 24,24 24,48 v 47 l -24,72 -286,286 h 310"
             id="path170" />
        </g>
        <text
           x="42638.387"
           y="33249.922"
           textLength="2274.2913"
           font-size="666.654px"
           lengthAdjust="spacingAndGlyphs"
           text-anchor="middle"
           opacity="0"
           id="text174">DIODE</text>
        <g
           class="stroked-text"
           id="g190">
          <desc
             id="desc176">DIODE</desc>
          <path
             d="m 41650,33226 v -500 h 119 l 71,23 48,48 24,48 23,95 v 71 l -23,96 -24,47 -48,48 -71,24 h -119"
             id="path178" />
          <path
             d="m 42150,33226 v -500"
             id="path180" />
          <path
             d="m 42483,32726 h 95 l 48,23 48,48 23,95 v 167 l -23,95 -48,48 -48,24 h -95 l -48,-24 -47,-48 -24,-95 v -167 l 24,-95 47,-48 48,-23"
             id="path182" />
          <path
             d="m 42912,33226 v -500 h 119 l 71,23 48,48 24,48 23,95 v 71 l -23,96 -24,47 -48,48 -71,24 h -119"
             id="path184" />
          <path
             d="m 43412,32964 h 166"
             id="path186" />
          <path
             d="m 43650,33226 h -238 v -500 h 238"
             id="path188" />
        </g>
      </g>
    </g>
    <g
       style="fill:#fbf1c7;fill-opacity:0;stroke:#fbf1c7;stroke-width:60;stroke-linecap:round;stroke-linejoin:round;stroke-opacity:1"
       id="g238">
      <g
         id="g196" />
      <g
         style="fill:#83a598;fill-opacity:0;stroke:#83a598;stroke-width:60;stroke-linecap:round;stroke-linejoin:round;stroke-opacity:1"
         id="g198" />
      <g
         style="fill:#83a598;fill-opacity:0;stroke:#83a598;stroke-width:100;stroke-linecap:round;stroke-linejoin:round;stroke-opacity:1"
         id="g202">
        <rect
           x="28000"
           y="29600"
           width="2000"
           height="800"
           rx="0.000000"
           id="rect200" />
      </g>
      <g
         style="fill:#689d6a;fill-opacity:0;stroke:#689d6a;stroke-width:100;stroke-linecap:round;stroke-linejoin:round;stroke-opacity:1"
         id="g204" />
      <g
         style="fill:#689d6a;fill-opacity:0;stroke:#689d6a;stroke-width:60;stroke-linecap:round;stroke-linejoin:round;stroke-opacity:1"
         id="g210">
        <path
           d="m 28000,30000 h -500"
           id="path206" />
        <path
           d="m 30000,30000 h 500"
           id="path208" />
      </g>
      <g
         style="fill:#fbf1c7;fill-opacity:0;stroke:#fbf1c7;stroke-width:60;stroke-linecap:round;stroke-linejoin:round;stroke-opacity:1"
         id="g236">
        <text
           x="28999.961"
           y="27750"
           textLength="1036.1812"
           font-size="666.654px"
           lengthAdjust="spacingAndGlyphs"
           text-anchor="middle"
           opacity="0"
           id="text212">R1</text>
        <g
           class="stroked-text"
           id="g224">
          <desc
             id="desc214">R1</desc>
          <path
             d="m 28916,27726 -167,-238"
             id="path216" />
          <path
             d="m 28630,27726 v -500 h 191 l 47,24 24,23 24,48 v 71 l -24,48 -24,24 -47,24 h -191"
             id="path218" />
          <path
             d="m 29392,27726 h -285"
             id="path220" />
          <path
             d="m 29249,27726 v -500 l -47,71 -48,48 -47,24"
             id="path222" />
        </g>
        <text
           x="29000"
           y="28750"
           textLength="560"
           font-size="666.654px"
           lengthAdjust="spacingAndGlyphs"
           text-anchor="middle"
           opacity="0"
           id="text226">R</text>
        <g
           class="stroked-text"
           id="g234">
          <desc
             id="desc228">R</desc>
          <path
             d="m 29154,28726 -166,-238"
             id="path230" />
          <path
             d="m 28869,28726 v -500 h 190 l 48,24 23,23 24,48 v 71 l -24,48 -23,24 -48,24 h -190"
             id="path232" />
        </g>
      </g>
    </g>
    <g
       style="fill:#fbf1c7;fill-opacity:0;stroke:#fbf1c7;stroke-width:60;stroke-linecap:round;stroke-linejoin:round;stroke-opacity:1"
       id="g272">
      <g
         id="g240" />
      <g
         style="fill:#83a598;fill-opacity:0;stroke:#83a598;stroke-width:60;stroke-linecap:round;stroke-linejoin:round;stroke-opacity:1"
         id="g244">
        <path
           style="fill:none;fill-opacity:0;stroke:#83a598;stroke-width:60;stroke-linecap:round;stroke-linejoin:round;stroke-opacity:1"
           d="m 25000,30000 v -500"
           id="path242" />
      </g>
      <g
         style="fill:#83a598;fill-opacity:0;stroke:#83a598;stroke-width:100;stroke-linecap:round;stroke-linejoin:round;stroke-opacity:1"
         id="g252">
        <path
           d="m 25000,28749.564 a 250,250 0 0 0 -500,0"
           id="path246" />
        <path
           d="m 25000,28750.436 a 250,250 0 0 0 500,0"
           id="path248" />
        <circle
           cx="25000"
           cy="28750"
           r="750"
           id="circle250" />
      </g>
      <g
         style="fill:#fbf1c7;fill-opacity:0;stroke:#fbf1c7;stroke-width:100;stroke-linecap:round;stroke-linejoin:round;stroke-opacity:1"
         id="g254" />
      <g
         style="fill:#fbf1c7;fill-opacity:0;stroke:#fbf1c7;stroke-width:60;stroke-linecap:round;stroke-linejoin:round;stroke-opacity:1"
         id="g270">
        <text
           x="25000"
           y="27249.961"
           textLength="1417.126"
           font-size="666.654px"
           lengthAdjust="spacingAndGlyphs"
           text-anchor="middle"
           opacity="0"
           id="text256">VAC</text>
        <g
           class="stroked-text"
           id="g268">
          <desc
             id="desc258">VAC</desc>
          <path
             d="m 24369,26726 166,500 167,-500"
             id="path260" />
          <path
             d="m 24845,27083 h 238"
             id="path262" />
          <path
             d="m 24797,27226 167,-500 166,500"
             id="path264" />
          <path
             d="m 25583,27178 -24,24 -71,24 h -48 l -71,-24 -48,-48 -24,-47 -24,-96 v -71 l 24,-95 24,-48 48,-48 71,-23 h 48 l 71,23 24,24"
             id="path266" />
        </g>
      </g>
    </g>
    <g
       style="fill:#fbf1c7;fill-opacity:0;stroke:#fbf1c7;stroke-width:60;stroke-linecap:round;stroke-linejoin:round;stroke-opacity:1"
       id="g314">
      <g
         id="g274" />
      <g
         style="fill:#83a598;fill-opacity:0;stroke:#83a598;stroke-width:60;stroke-linecap:round;stroke-linejoin:round;stroke-opacity:1"
         id="g276" />
      <g
         style="fill:#83a598;fill-opacity:0;stroke:#83a598;stroke-width:100;stroke-linecap:round;stroke-linejoin:round;stroke-opacity:1"
         id="g280">
        <rect
           x="44600"
           y="31500"
           width="800"
           height="2000"
           rx="0.000000"
           id="rect278" />
      </g>
      <g
         style="fill:#689d6a;fill-opacity:0;stroke:#689d6a;stroke-width:100;stroke-linecap:round;stroke-linejoin:round;stroke-opacity:1"
         id="g282" />
      <g
         style="fill:#689d6a;fill-opacity:0;stroke:#689d6a;stroke-width:60;stroke-linecap:round;stroke-linejoin:round;stroke-opacity:1"
         id="g288">
        <path
           d="m 45000,33500 v 500"
           id="path284" />
        <path
           d="m 45000,31500 v -500"
           id="path286" />
      </g>
      <g
         style="fill:#fbf1c7;fill-opacity:0;stroke:#fbf1c7;stroke-width:60;stroke-linecap:round;stroke-linejoin:round;stroke-opacity:1"
         id="g312">
        <text
           x="46519.332"
           y="32249.961"
           textLength="1036.1812"
           font-size="666.654px"
           lengthAdjust="spacingAndGlyphs"
           text-anchor="middle"
           opacity="0"
           id="text290">R2</text>
        <g
           class="stroked-text"
           id="g300">
          <desc
             id="desc292">R2</desc>
          <path
             d="m 46435,32226 -166,-238"
             id="path294" />
          <path
             d="m 46150,32226 v -500 h 190 l 48,23 24,24 23,48 v 71 l -23,48 -24,24 -48,24 h -190"
             id="path296" />
          <path
             d="m 46626,31773 24,-24 47,-23 h 119 l 48,23 24,24 24,48 v 47 l -24,72 -286,286 h 310"
             id="path298" />
        </g>
        <text
           x="46281.262"
           y="33249.961"
           textLength="560"
           font-size="666.654px"
           lengthAdjust="spacingAndGlyphs"
           text-anchor="middle"
           opacity="0"
           id="text302">R</text>
        <g
           class="stroked-text"
           id="g310">
          <desc
             id="desc304">R</desc>
          <path
             d="m 46435,33226 -166,-238"
             id="path306" />
          <path
             d="m 46150,33226 v -500 h 190 l 48,23 24,24 23,48 v 71 l -23,48 -24,24 -48,24 h -190"
             id="path308" />
        </g>
      </g>
    </g>
    <g
       style="fill:#fbf1c7;fill-opacity:0;stroke:#fbf1c7;stroke-width:62.5197;stroke-linecap:round;stroke-linejoin:round;stroke-opacity:1"
       id="g316" />
    <g
       style="fill:#fbf1c7;fill-opacity:0;stroke:#fbf1c7;stroke-width:60;stroke-linecap:round;stroke-linejoin:round;stroke-opacity:1"
       id="g318" />
    <g
       style="fill:#ebdbb2;fill-opacity:0;stroke:#ebdbb2;stroke-width:60;stroke-linecap:round;stroke-linejoin:round;stroke-opacity:1"
       id="g406">
      <text
         x="25000"
         y="23557.48"
         textLength="5012.3623"
         font-size="666.654px"
         lengthAdjust="spacingAndGlyphs"
         text-anchor="start"
         opacity="0"
         id="text320">.param R=1k</text>
      <g
         class="stroked-text"
         id="g366">
        <desc
           id="desc322">.param R=1k</desc>
        <path
           d="m 25149,23486 23,23 -23,24 -24,-24 24,-23 v 47"
           id="path324" />
        <path
           d="m 25387,23200 v 500"
           id="path326" />
        <path
           d="m 25387,23224 47,-24 h 96 l 47,24 24,23 24,48 v 143 l -24,48 -24,23 -47,24 h -96 l -47,-24"
           id="path328" />
        <path
           d="m 26053,23533 v -262 l -23,-47 -48,-24 h -95 l -48,24"
           id="path330" />
        <path
           d="m 26053,23509 -47,24 h -119 l -48,-24 -24,-47 v -48 l 24,-48 48,-23 h 119 l 47,-24"
           id="path332" />
        <path
           d="m 26291,23533 v -333"
           id="path334" />
        <path
           d="m 26291,23295 24,-48 24,-23 48,-24 h 47"
           id="path336" />
        <path
           d="m 26815,23533 v -262 l -24,-47 -47,-24 h -95 l -48,24"
           id="path338" />
        <path
           d="m 26815,23509 -47,24 h -119 l -48,-24 -24,-47 v -48 l 24,-48 48,-23 h 119 l 47,-24"
           id="path340" />
        <path
           d="m 27053,23533 v -333"
           id="path342" />
        <path
           d="m 27053,23247 24,-23 48,-24 h 71 l 48,24 24,47 v 262"
           id="path344" />
        <path
           d="m 27268,23271 23,-47 48,-24 h 71 l 48,24 24,47 v 262"
           id="path346" />
        <path
           d="m 28387,23533 -167,-238"
           id="path348" />
        <path
           d="m 28101,23533 v -500 h 190 l 48,24 24,24 24,47 v 72 l -24,47 -24,24 -48,24 h -190"
           id="path350" />
        <path
           d="m 28601,23271 h 381"
           id="path352" />
        <path
           d="m 28982,23414 h -381"
           id="path354" />
        <path
           d="m 29482,23533 h -286"
           id="path356" />
        <path
           d="m 29339,23533 v -500 l -48,72 -47,47 -48,24"
           id="path358" />
        <path
           d="m 29696,23533 v -500"
           id="path360" />
        <path
           d="m 29744,23343 143,190"
           id="path362" />
        <path
           d="m 29887,23200 -191,190"
           id="path364" />
      </g>
      <text
         x="25000"
         y="24362.48"
         textLength="6036.1812"
         font-size="666.654px"
         lengthAdjust="spacingAndGlyphs"
         text-anchor="start"
         opacity="0"
         id="text368">.model DIODE D</text>
      <g
         class="stroked-text"
         id="g404">
        <desc
           id="desc370">.model DIODE D</desc>
        <path
           d="m 25149,24291 23,23 -23,24 -24,-24 24,-23 v 47"
           id="path372" />
        <path
           d="m 25387,24338 v -333"
           id="path374" />
        <path
           d="m 25387,24052 23,-23 48,-24 h 72 l 47,24 24,47 v 262"
           id="path376" />
        <path
           d="m 25601,24076 24,-47 47,-24 h 72 l 47,24 24,47 v 262"
           id="path378" />
        <path
           d="m 26125,24338 -48,-24 -24,-23 -23,-48 v -143 l 23,-48 24,-23 48,-24 h 71 l 48,24 24,23 23,48 v 143 l -23,48 -24,23 -48,24 h -71"
           id="path380" />
        <path
           d="m 26720,24338 v -500"
           id="path382" />
        <path
           d="m 26720,24314 -48,24 h -95 l -47,-24 -24,-23 -24,-48 v -143 l 24,-48 24,-23 47,-24 h 95 l 48,24"
           id="path384" />
        <path
           d="m 27149,24314 -48,24 h -95 l -48,-24 -24,-47 v -191 l 24,-47 48,-24 h 95 l 48,24 23,47 v 48 l -238,47"
           id="path386" />
        <path
           d="m 27458,24338 -48,-24 -23,-47 v -429"
           id="path388" />
        <path
           d="m 28030,24338 v -500 h 119 l 71,24 48,48 23,47 24,95 v 72 l -24,95 -23,48 -48,47 -71,24 h -119"
           id="path390" />
        <path
           d="m 28530,24338 v -500"
           id="path392" />
        <path
           d="m 28863,23838 h 95 l 48,24 47,48 24,95 v 166 l -24,96 -47,47 -48,24 h -95 l -48,-24 -47,-47 -24,-96 v -166 l 24,-95 47,-48 48,-24"
           id="path394" />
        <path
           d="m 29291,24338 v -500 h 119 l 72,24 48,48 23,47 24,95 v 72 l -24,95 -23,48 -48,47 -72,24 h -119"
           id="path396" />
        <path
           d="m 29791,24076 h 167"
           id="path398" />
        <path
           d="m 30030,24338 h -239 v -500 h 239"
           id="path400" />
        <path
           d="m 30625,24338 v -500 h 119 l 71,24 48,48 24,47 23,95 v 72 l -23,95 -24,48 -48,47 -71,24 h -119"
           id="path402" />
      </g>
    </g>
    <g
       style="fill:#789d6a;fill-opacity:0;stroke:#789d6a;stroke-width:60;stroke-linecap:round;stroke-linejoin:round;stroke-opacity:1"
       id="g436">
      <path
         d="m 35000,30000 v 500"
         id="path408" />
      <path
         d="m 25000,30000 h 2500"
         id="path410" />
      <path
         d="m 25000,30000 v 5000"
         id="path412" />
      <path
         d="M 25000,35000 H 35000"
         id="path414" />
      <path
         d="m 40000,34500 v 500"
         id="path416" />
      <path
         d="m 35000,34500 v 500"
         id="path418" />
      <path
         d="m 35000,35000 h 5000"
         id="path420" />
      <path
         d="m 30500,30000 h 4500"
         id="path422" />
      <path
         d="m 45000,34000 v 1000"
         id="path424" />
      <path
         d="m 40000,35000 h 5000"
         id="path426" />
      <path
         d="m 40000,30000 h 5000"
         id="path428" />
      <path
         d="m 40000,30000 v 500"
         id="path430" />
      <path
         d="m 45000,30000 v 1000"
         id="path432" />
      <path
         d="m 35000,30000 h 5000"
         id="path434" />
    </g>
    <g
       style="fill:#8ec07c;fill-opacity:0;stroke:#8ec07c;stroke-width:60;stroke-linecap:round;stroke-linejoin:round;stroke-opacity:1"
       id="g438" />
    <g
       style="fill:#8ec07c;fill-opacity:1;stroke:#8ec07c;stroke-width:60;stroke-linecap:round;stroke-linejoin:round;stroke-opacity:1"
       id="g452">
      <circle
         cx="40000"
         cy="30000"
         r="180"
         id="circle440" />
      <circle
         cx="40000"
         cy="35000"
         r="180"
         id="circle442" />
      <circle
         cx="35000"
         cy="35000"
         r="180"
         id="circle444" />
      <circle
         cx="35000"
         cy="30000"
         r="180"
         id="circle446" />
      <circle
         cx="25000"
         cy="35000"
         r="180"
         id="circle448" />
      <circle
         cx="25000"
         cy="30000"
         r="180"
         id="circle450" />
    </g>
  </g>
  <metadata
     id="metadata906">
    <rdf:RDF>
      <cc:Work
         rdf:about="">
        <dc:title>SVG Picture created as Schématique.svg date 2023/01/12 11:34:22 </dc:title>
      </cc:Work>
    </rdf:RDF>
  </metadata>
</svg>
